<svg width="56" height="37" viewBox="0 0 56 37" fill="none" xmlns="http://www.w3.org/2000/svg">
<path d="M39.2246 0.793564C30.4197 0.793564 23.2819 7.93132 23.2819 16.7362C23.2819 25.5411 30.4197 32.6788 39.2246 32.6788C48.0295 32.6788 55.1672 25.5411 55.1672 16.7362C55.1672 7.93132 48.0295 0.793564 39.2246 0.793564ZM39.2245 28.8331C32.5543 28.8331 27.1277 23.4065 27.1277 16.7363C27.1277 10.0661 32.5543 4.63948 39.2245 4.63948C45.8947 4.63948 51.3213 10.0661 51.3213 16.7363C51.3213 23.4065 45.8948 28.8331 39.2245 28.8331Z" fill="#9B9B9B"/>
<path d="M39.2246 7.88201C34.3424 7.88201 30.3704 11.854 30.3704 16.7363C30.3704 21.6185 34.3424 25.5905 39.2246 25.5905C44.1069 25.5905 48.0789 21.6185 48.0789 16.7363C48.0789 11.854 44.107 7.88201 39.2246 7.88201Z" fill="#9B9B9B"/>
<path d="M6.43277 14.2324C7.65902 13.4897 8.47862 12.1429 8.47862 10.6045L7.87123 0.673675C7.848 0.295138 7.53425 0 7.15496 0C6.74474 0 6.41791 0.343654 6.43832 0.753124L6.83331 8.71772C6.83331 9.16545 6.47029 9.52829 6.02274 9.52829C5.57509 9.52829 5.21216 9.16527 5.21216 8.71772L5.01481 0.756415C5.00437 0.335662 4.66034 9.39713e-05 4.2394 9.39713e-05C3.81846 9.39713e-05 3.47453 0.335756 3.46399 0.756415L3.26664 8.71772C3.26664 9.16545 2.90362 9.52829 2.45607 9.52829C2.00842 9.52829 1.6455 9.16527 1.6455 8.71772L2.04049 0.753124C2.0608 0.343466 1.73378 0 1.32384 0C0.944555 0 0.6308 0.295138 0.60767 0.673675L0 10.6046C0 12.143 0.819504 13.4897 2.04585 14.2325C2.84391 14.7159 3.28883 15.6197 3.18597 16.5471C2.49368 22.7863 2.02356 32.9723 2.02356 34.0818C2.02356 35.6936 3.0156 37.0001 4.23931 37.0001C5.46302 37.0001 6.45505 35.6935 6.45505 34.0818C6.45505 32.9723 5.98484 22.7863 5.29265 16.5471C5.18969 15.6201 5.63508 14.7156 6.43277 14.2324Z" fill="#9B9B9B"/>
<circle cx="15.4991" cy="17.632" r="2.00582" fill="#9B9B9B"/>
</svg>
